<?xml version="1.0" encoding="utf-8"?>
<!-- Generator: Adobe Illustrator 25.0.0, SVG Export Plug-In . SVG Version: 6.00 Build 0)  -->
<svg version="1.1" id="Layer_1" xmlns="http://www.w3.org/2000/svg" xmlns:xlink="http://www.w3.org/1999/xlink" x="0px" y="0px"
	 viewBox="0 0 543.2 102" style="enable-background:new 0 0 543.2 102;" xml:space="preserve">
<style type="text/css">
	.st0{fill:#231F20;}
	.st1{fill:url(#SVGID_1_);}
	.st2{fill:url(#SVGID_2_);}
</style>
<g>
	<path class="st0" d="M53.3,0L0,30.8v31.1c0.9,0.5,8.3,4.7,20,8.3V42.3l33.3-19.2l32.5,19.1v28.2c6.5-2,13.2-4.8,20-8.6v-31L53.3,0z
		"/>
	
		<linearGradient id="SVGID_1_" gradientUnits="userSpaceOnUse" x1="0" y1="29.25" x2="105.8" y2="29.25" gradientTransform="matrix(1 0 0 -1 0 104)">
		<stop  offset="0" style="stop-color:#F7941D"/>
		<stop  offset="0.2984" style="stop-color:#F8981C"/>
		<stop  offset="0.5894" style="stop-color:#FAA418"/>
		<stop  offset="0.8765" style="stop-color:#FDB712"/>
		<stop  offset="1" style="stop-color:#FFC20E"/>
	</linearGradient>
	<path class="st1" d="M105.7,68.4C89.9,76.6,70.7,82,52.9,82S15.8,76.5,0,68.5v19.9l5.5,2.8c14,7.1,30.4,10.8,47.4,10.8
		s33.4-3.7,47.4-10.8l5.5-2.8C105.7,88.4,105.7,68.4,105.7,68.4z M75.7,47.5H57.6v16.1h18.1V47.5z M48.2,47.5H30.1v16.1h18.1V47.5z"
		/>
	<path class="st0" d="M184.7,17.2V88h-16.2V59.9h-22.3V88H130V17.2h16.2v27.1h22.3V17.2H184.7z"/>
	<path class="st0" d="M191.8,62.7c0-15.1,11.9-26.7,26.8-26.7c14.9,0,26.8,11.6,26.8,26.7s-11.9,26.7-26.8,26.7
		S191.8,77.8,191.8,62.7z M230.2,62.7c0-7.2-5.1-11.9-11.6-11.9c-6.6,0-11.6,4.8-11.6,11.9s5.1,11.9,11.6,11.9
		C225.2,74.6,230.2,69.9,230.2,62.7z"/>
	<path class="st0" d="M327.9,56.9V88h-15.2V58.2c0-5.1-2.4-8.3-7.3-8.3c-5.1,0-7.9,3.5-7.9,9.5V88h-15.2V58.2c0-5.1-2.4-8.3-7.3-8.3
		c-5.1,0-7.9,3.5-7.9,9.5V88H252V37.4h15.2v4.7c2.3-3.4,6.8-6.1,13.6-6.1c6,0,10.4,2.4,13.3,6.7c2.8-4,7.5-6.7,14.7-6.7
		C320.3,36,327.9,44.3,327.9,56.9z"/>
	<path class="st0" d="M364,75.9c4.1,0,7.7-1.6,9.7-3.8l12.1,7c-5,6.9-12.4,10.4-22.1,10.4c-17.3,0-28-11.6-28-26.7s11-26.8,27-26.8
		c14.8,0,25.7,11.4,25.7,26.7c0,2.1-0.2,4.1-0.6,6.1h-35.9C353.8,74,358.5,75.9,364,75.9z M373.4,57.4c-1.6-5.9-6.2-8-10.7-8
		c-5.8,0-9.6,2.8-11,8H373.4z"/>
	
		<linearGradient id="SVGID_2_" gradientUnits="userSpaceOnUse" x1="440.134" y1="0.4825" x2="470.773" y2="84.6624" gradientTransform="matrix(1 0 0 -1 0 104)">
		<stop  offset="0" style="stop-color:#F7941D"/>
		<stop  offset="0.2984" style="stop-color:#F8981C"/>
		<stop  offset="0.5894" style="stop-color:#FAA418"/>
		<stop  offset="0.8765" style="stop-color:#FDB712"/>
		<stop  offset="1" style="stop-color:#FFC20E"/>
	</linearGradient>
	<path class="st2" d="M397.5,88h16.2V62h18.2l4.1-15.6h-22.2V32.7h22.8l4.1-15.6h-43V88H397.5z M449.7,88h15.2V17.2h-15.2V88z
		 M500.3,36c-14.9,0-26.8,11.6-26.8,26.7s11.9,26.7,26.8,26.7c14.9,0,26.8-11.6,26.8-26.7S515.1,36,500.3,36z M500.3,74.6
		c-6.6,0-11.6-4.8-11.6-11.9c0-7.2,5.1-11.9,11.6-11.9c6.6,0,11.6,4.8,11.6,11.9C511.9,69.9,506.9,74.6,500.3,74.6z"/>
</g>
</svg>
